<mxfile host="app.diagrams.net" agent="Mozilla/5.0 (Macintosh; Intel Mac OS X 10.15; rv:139.0) Gecko/20100101 Firefox/139.0" version="27.1.6">
  <diagram name="Page-1" id="qlcogdXa_SR0bubd_n4B">
    <mxGraphModel dx="2016" dy="1159" grid="1" gridSize="10" guides="1" tooltips="1" connect="1" arrows="1" fold="1" page="1" pageScale="1" pageWidth="850" pageHeight="1100" math="0" shadow="0">
      <root>
        <mxCell id="0" />
        <mxCell id="1" parent="0" />
        <mxCell id="TwvTjhooDq3U4D_pEH7r-3" value="CoupledSDEs" style="rounded=0;whiteSpace=wrap;html=1;" vertex="1" parent="1">
          <mxGeometry x="40" y="120" width="120" height="60" as="geometry" />
        </mxCell>
        <mxCell id="TwvTjhooDq3U4D_pEH7r-5" value="&lt;h1 style=&quot;margin-top: 0px;&quot;&gt;Constructors&lt;/h1&gt;" style="text;html=1;whiteSpace=wrap;overflow=hidden;rounded=0;" vertex="1" parent="1">
          <mxGeometry x="10" y="60" width="180" height="40" as="geometry" />
        </mxCell>
        <mxCell id="TwvTjhooDq3U4D_pEH7r-6" value="&lt;h1 style=&quot;margin-top: 0px;&quot;&gt;Methods&lt;/h1&gt;" style="text;html=1;whiteSpace=wrap;overflow=hidden;rounded=0;" vertex="1" parent="1">
          <mxGeometry x="10" y="390" width="180" height="40" as="geometry" />
        </mxCell>
        <mxCell id="TwvTjhooDq3U4D_pEH7r-7" value="&lt;h1 style=&quot;margin-top: 0px;&quot;&gt;Types&lt;/h1&gt;" style="text;html=1;whiteSpace=wrap;overflow=hidden;rounded=0;" vertex="1" parent="1">
          <mxGeometry x="10" y="760" width="180" height="40" as="geometry" />
        </mxCell>
        <mxCell id="TwvTjhooDq3U4D_pEH7r-9" value="RateSystem" style="rounded=0;whiteSpace=wrap;html=1;" vertex="1" parent="1">
          <mxGeometry x="360" y="120" width="120" height="60" as="geometry" />
        </mxCell>
        <mxCell id="TwvTjhooDq3U4D_pEH7r-10" value="CoupledODEs" style="rounded=0;whiteSpace=wrap;html=1;" vertex="1" parent="1">
          <mxGeometry x="200" y="120" width="120" height="60" as="geometry" />
        </mxCell>
        <mxCell id="TwvTjhooDq3U4D_pEH7r-11" value="HamiltonianSystem" style="rounded=0;whiteSpace=wrap;html=1;" vertex="1" parent="1">
          <mxGeometry x="680" y="120" width="120" height="60" as="geometry" />
        </mxCell>
      </root>
    </mxGraphModel>
  </diagram>
</mxfile>
